<svg width="923" height="220" viewBox="0 0 923 220" fill="none" xmlns="http://www.w3.org/2000/svg">
<line x1="454" y1="16" x2="454" y2="124" stroke="white" stroke-width="6"/>
<circle cx="454" cy="15" r="15" fill="#C4C4C4"/>
<circle cx="454" cy="115" r="15" fill="#C4C4C4"/>
<rect y="1" width="386" height="115" rx="5" fill="white"/>
<path d="M411 15L384.75 27.9904V2.00962L411 15Z" fill="white"/>
<path d="M101.535 44L98.6148 38.7H97.7948V44H94.3748V29.96H100.115C101.221 29.96 102.161 30.1533 102.935 30.54C103.721 30.9267 104.308 31.46 104.695 32.14C105.081 32.8067 105.275 33.5533 105.275 34.38C105.275 35.3133 105.008 36.1467 104.475 36.88C103.955 37.6133 103.181 38.1333 102.155 38.44L105.395 44H101.535ZM97.7948 36.28H99.9148C100.541 36.28 101.008 36.1267 101.315 35.82C101.635 35.5133 101.795 35.08 101.795 34.52C101.795 33.9867 101.635 33.5667 101.315 33.26C101.008 32.9533 100.541 32.8 99.9148 32.8H97.7948V36.28ZM117.942 38.24C117.942 38.56 117.922 38.8933 117.882 39.24H110.142C110.195 39.9333 110.415 40.4667 110.802 40.84C111.202 41.2 111.688 41.38 112.262 41.38C113.115 41.38 113.708 41.02 114.042 40.3H117.682C117.495 41.0333 117.155 41.6933 116.662 42.28C116.182 42.8667 115.575 43.3267 114.842 43.66C114.108 43.9933 113.288 44.16 112.382 44.16C111.288 44.16 110.315 43.9267 109.462 43.46C108.608 42.9933 107.942 42.3267 107.462 41.46C106.982 40.5933 106.742 39.58 106.742 38.42C106.742 37.26 106.975 36.2467 107.442 35.38C107.922 34.5133 108.588 33.8467 109.442 33.38C110.295 32.9133 111.275 32.68 112.382 32.68C113.462 32.68 114.422 32.9067 115.262 33.36C116.102 33.8133 116.755 34.46 117.222 35.3C117.702 36.14 117.942 37.12 117.942 38.24ZM114.442 37.34C114.442 36.7533 114.242 36.2867 113.842 35.94C113.442 35.5933 112.942 35.42 112.342 35.42C111.768 35.42 111.282 35.5867 110.882 35.92C110.495 36.2533 110.255 36.7267 110.162 37.34H114.442ZM123.986 32.68C124.773 32.68 125.459 32.84 126.046 33.16C126.646 33.48 127.106 33.9 127.426 34.42V32.84H130.846V43.98C130.846 45.0067 130.639 45.9333 130.226 46.76C129.826 47.6 129.206 48.2667 128.366 48.76C127.539 49.2533 126.506 49.5 125.266 49.5C123.613 49.5 122.273 49.1067 121.246 48.32C120.219 47.5467 119.633 46.4933 119.486 45.16H122.866C122.973 45.5867 123.226 45.92 123.626 46.16C124.026 46.4133 124.519 46.54 125.106 46.54C125.813 46.54 126.373 46.3333 126.786 45.92C127.213 45.52 127.426 44.8733 127.426 43.98V42.4C127.093 42.92 126.633 43.3467 126.046 43.68C125.459 44 124.773 44.16 123.986 44.16C123.066 44.16 122.233 43.9267 121.486 43.46C120.739 42.98 120.146 42.3067 119.706 41.44C119.279 40.56 119.066 39.5467 119.066 38.4C119.066 37.2533 119.279 36.2467 119.706 35.38C120.146 34.5133 120.739 33.8467 121.486 33.38C122.233 32.9133 123.066 32.68 123.986 32.68ZM127.426 38.42C127.426 37.5667 127.186 36.8933 126.706 36.4C126.239 35.9067 125.666 35.66 124.986 35.66C124.306 35.66 123.726 35.9067 123.246 36.4C122.779 36.88 122.546 37.5467 122.546 38.4C122.546 39.2533 122.779 39.9333 123.246 40.44C123.726 40.9333 124.306 41.18 124.986 41.18C125.666 41.18 126.239 40.9333 126.706 40.44C127.186 39.9467 127.426 39.2733 127.426 38.42ZM135.04 31.68C134.44 31.68 133.947 31.5067 133.56 31.16C133.187 30.8 133 30.36 133 29.84C133 29.3067 133.187 28.8667 133.56 28.52C133.947 28.16 134.44 27.98 135.04 27.98C135.627 27.98 136.107 28.16 136.48 28.52C136.867 28.8667 137.06 29.3067 137.06 29.84C137.06 30.36 136.867 30.8 136.48 31.16C136.107 31.5067 135.627 31.68 135.04 31.68ZM136.74 32.84V44H133.32V32.84H136.74ZM143.759 44.16C142.785 44.16 141.919 43.9933 141.159 43.66C140.399 43.3267 139.799 42.8733 139.359 42.3C138.919 41.7133 138.672 41.06 138.619 40.34H141.999C142.039 40.7267 142.219 41.04 142.539 41.28C142.859 41.52 143.252 41.64 143.719 41.64C144.145 41.64 144.472 41.56 144.699 41.4C144.939 41.2267 145.059 41.0067 145.059 40.74C145.059 40.42 144.892 40.1867 144.559 40.04C144.225 39.88 143.685 39.7067 142.939 39.52C142.139 39.3333 141.472 39.14 140.939 38.94C140.405 38.7267 139.945 38.4 139.559 37.96C139.172 37.5067 138.979 36.9 138.979 36.14C138.979 35.5 139.152 34.92 139.499 34.4C139.859 33.8667 140.379 33.4467 141.059 33.14C141.752 32.8333 142.572 32.68 143.519 32.68C144.919 32.68 146.019 33.0267 146.819 33.72C147.632 34.4133 148.099 35.3333 148.219 36.48H145.059C145.005 36.0933 144.832 35.7867 144.539 35.56C144.259 35.3333 143.885 35.22 143.419 35.22C143.019 35.22 142.712 35.3 142.499 35.46C142.285 35.6067 142.179 35.8133 142.179 36.08C142.179 36.4 142.345 36.64 142.679 36.8C143.025 36.96 143.559 37.12 144.279 37.28C145.105 37.4933 145.779 37.7067 146.299 37.92C146.819 38.12 147.272 38.4533 147.659 38.92C148.059 39.3733 148.265 39.9867 148.279 40.76C148.279 41.4133 148.092 42 147.719 42.52C147.359 43.0267 146.832 43.4267 146.139 43.72C145.459 44.0133 144.665 44.16 143.759 44.16ZM156.591 41.1V44H154.851C153.611 44 152.644 43.7 151.951 43.1C151.258 42.4867 150.911 41.4933 150.911 40.12V35.68H149.551V32.84H150.911V30.12H154.331V32.84H156.571V35.68H154.331V40.16C154.331 40.4933 154.411 40.7333 154.571 40.88C154.731 41.0267 154.998 41.1 155.371 41.1H156.591ZM161.916 34.7C162.316 34.0867 162.816 33.6067 163.416 33.26C164.016 32.9 164.683 32.72 165.416 32.72V36.34H164.476C163.623 36.34 162.983 36.5267 162.556 36.9C162.129 37.26 161.916 37.9 161.916 38.82V44H158.496V32.84H161.916V34.7ZM166.371 38.4C166.371 37.2533 166.584 36.2467 167.011 35.38C167.451 34.5133 168.044 33.8467 168.791 33.38C169.537 32.9133 170.371 32.68 171.291 32.68C172.077 32.68 172.764 32.84 173.351 33.16C173.951 33.48 174.411 33.9 174.731 34.42V32.84H178.151V44H174.731V42.42C174.397 42.94 173.931 43.36 173.331 43.68C172.744 44 172.057 44.16 171.271 44.16C170.364 44.16 169.537 43.9267 168.791 43.46C168.044 42.98 167.451 42.3067 167.011 41.44C166.584 40.56 166.371 39.5467 166.371 38.4ZM174.731 38.42C174.731 37.5667 174.491 36.8933 174.011 36.4C173.544 35.9067 172.971 35.66 172.291 35.66C171.611 35.66 171.031 35.9067 170.551 36.4C170.084 36.88 169.851 37.5467 169.851 38.4C169.851 39.2533 170.084 39.9333 170.551 40.44C171.031 40.9333 171.611 41.18 172.291 41.18C172.971 41.18 173.544 40.9333 174.011 40.44C174.491 39.9467 174.731 39.2733 174.731 38.42ZM186.845 41.1V44H185.105C183.865 44 182.898 43.7 182.205 43.1C181.511 42.4867 181.165 41.4933 181.165 40.12V35.68H179.805V32.84H181.165V30.12H184.585V32.84H186.825V35.68H184.585V40.16C184.585 40.4933 184.665 40.7333 184.825 40.88C184.985 41.0267 185.251 41.1 185.625 41.1H186.845ZM190.47 31.68C189.87 31.68 189.376 31.5067 188.99 31.16C188.616 30.8 188.43 30.36 188.43 29.84C188.43 29.3067 188.616 28.8667 188.99 28.52C189.376 28.16 189.87 27.98 190.47 27.98C191.056 27.98 191.536 28.16 191.91 28.52C192.296 28.8667 192.49 29.3067 192.49 29.84C192.49 30.36 192.296 30.8 191.91 31.16C191.536 31.5067 191.056 31.68 190.47 31.68ZM192.17 32.84V44H188.75V32.84H192.17ZM199.728 44.16C198.635 44.16 197.648 43.9267 196.768 43.46C195.902 42.9933 195.215 42.3267 194.708 41.46C194.215 40.5933 193.968 39.58 193.968 38.42C193.968 37.2733 194.222 36.2667 194.728 35.4C195.235 34.52 195.928 33.8467 196.808 33.38C197.688 32.9133 198.675 32.68 199.768 32.68C200.862 32.68 201.848 32.9133 202.728 33.38C203.608 33.8467 204.302 34.52 204.808 35.4C205.315 36.2667 205.568 37.2733 205.568 38.42C205.568 39.5667 205.308 40.58 204.788 41.46C204.282 42.3267 203.582 42.9933 202.688 43.46C201.808 43.9267 200.822 44.16 199.728 44.16ZM199.728 41.2C200.382 41.2 200.935 40.96 201.388 40.48C201.855 40 202.088 39.3133 202.088 38.42C202.088 37.5267 201.862 36.84 201.408 36.36C200.968 35.88 200.422 35.64 199.768 35.64C199.102 35.64 198.548 35.88 198.108 36.36C197.668 36.8267 197.448 37.5133 197.448 38.42C197.448 39.3133 197.662 40 198.088 40.48C198.528 40.96 199.075 41.2 199.728 41.2ZM214.183 32.72C215.489 32.72 216.529 33.1467 217.303 34C218.089 34.84 218.483 36 218.483 37.48V44H215.083V37.94C215.083 37.1933 214.889 36.6133 214.503 36.2C214.116 35.7867 213.596 35.58 212.943 35.58C212.289 35.58 211.769 35.7867 211.383 36.2C210.996 36.6133 210.803 37.1933 210.803 37.94V44H207.383V32.84H210.803V34.32C211.149 33.8267 211.616 33.44 212.203 33.16C212.789 32.8667 213.449 32.72 214.183 32.72ZM235.797 34.48C235.797 35.2933 235.611 36.04 235.237 36.72C234.864 37.3867 234.291 37.9267 233.517 38.34C232.744 38.7533 231.784 38.96 230.637 38.96H228.517V44H225.097V29.96H230.637C231.757 29.96 232.704 30.1533 233.477 30.54C234.251 30.9267 234.831 31.46 235.217 32.14C235.604 32.82 235.797 33.6 235.797 34.48ZM230.377 36.24C231.031 36.24 231.517 36.0867 231.837 35.78C232.157 35.4733 232.317 35.04 232.317 34.48C232.317 33.92 232.157 33.4867 231.837 33.18C231.517 32.8733 231.031 32.72 230.377 32.72H228.517V36.24H230.377ZM244.438 32.72C245.718 32.72 246.745 33.1467 247.518 34C248.291 34.84 248.678 36 248.678 37.48V44H245.278V37.94C245.278 37.1933 245.085 36.6133 244.698 36.2C244.311 35.7867 243.791 35.58 243.138 35.58C242.485 35.58 241.965 35.7867 241.578 36.2C241.191 36.6133 240.998 37.1933 240.998 37.94V44H237.578V29.2H240.998V34.34C241.345 33.8467 241.818 33.4533 242.418 33.16C243.018 32.8667 243.691 32.72 244.438 32.72ZM250.374 38.4C250.374 37.2533 250.588 36.2467 251.014 35.38C251.454 34.5133 252.048 33.8467 252.794 33.38C253.541 32.9133 254.374 32.68 255.294 32.68C256.081 32.68 256.768 32.84 257.354 33.16C257.954 33.48 258.414 33.9 258.734 34.42V32.84H262.154V44H258.734V42.42C258.401 42.94 257.934 43.36 257.334 43.68C256.748 44 256.061 44.16 255.274 44.16C254.368 44.16 253.541 43.9267 252.794 43.46C252.048 42.98 251.454 42.3067 251.014 41.44C250.588 40.56 250.374 39.5467 250.374 38.4ZM258.734 38.42C258.734 37.5667 258.494 36.8933 258.014 36.4C257.548 35.9067 256.974 35.66 256.294 35.66C255.614 35.66 255.034 35.9067 254.554 36.4C254.088 36.88 253.854 37.5467 253.854 38.4C253.854 39.2533 254.088 39.9333 254.554 40.44C255.034 40.9333 255.614 41.18 256.294 41.18C256.974 41.18 257.548 40.9333 258.014 40.44C258.494 39.9467 258.734 39.2733 258.734 38.42ZM269.169 44.16C268.195 44.16 267.329 43.9933 266.569 43.66C265.809 43.3267 265.209 42.8733 264.769 42.3C264.329 41.7133 264.082 41.06 264.029 40.34H267.409C267.449 40.7267 267.629 41.04 267.949 41.28C268.269 41.52 268.662 41.64 269.129 41.64C269.555 41.64 269.882 41.56 270.109 41.4C270.349 41.2267 270.469 41.0067 270.469 40.74C270.469 40.42 270.302 40.1867 269.969 40.04C269.635 39.88 269.095 39.7067 268.349 39.52C267.549 39.3333 266.882 39.14 266.349 38.94C265.815 38.7267 265.355 38.4 264.969 37.96C264.582 37.5067 264.389 36.9 264.389 36.14C264.389 35.5 264.562 34.92 264.909 34.4C265.269 33.8667 265.789 33.4467 266.469 33.14C267.162 32.8333 267.982 32.68 268.929 32.68C270.329 32.68 271.429 33.0267 272.229 33.72C273.042 34.4133 273.509 35.3333 273.629 36.48H270.469C270.415 36.0933 270.242 35.7867 269.949 35.56C269.669 35.3333 269.295 35.22 268.829 35.22C268.429 35.22 268.122 35.3 267.909 35.46C267.695 35.6067 267.589 35.8133 267.589 36.08C267.589 36.4 267.755 36.64 268.089 36.8C268.435 36.96 268.969 37.12 269.689 37.28C270.515 37.4933 271.189 37.7067 271.709 37.92C272.229 38.12 272.682 38.4533 273.069 38.92C273.469 39.3733 273.675 39.9867 273.689 40.76C273.689 41.4133 273.502 42 273.129 42.52C272.769 43.0267 272.242 43.4267 271.549 43.72C270.869 44.0133 270.075 44.16 269.169 44.16ZM286.301 38.24C286.301 38.56 286.281 38.8933 286.241 39.24H278.501C278.554 39.9333 278.774 40.4667 279.161 40.84C279.561 41.2 280.048 41.38 280.621 41.38C281.474 41.38 282.068 41.02 282.401 40.3H286.041C285.854 41.0333 285.514 41.6933 285.021 42.28C284.541 42.8667 283.934 43.3267 283.201 43.66C282.468 43.9933 281.648 44.16 280.741 44.16C279.648 44.16 278.674 43.9267 277.821 43.46C276.968 42.9933 276.301 42.3267 275.821 41.46C275.341 40.5933 275.101 39.58 275.101 38.42C275.101 37.26 275.334 36.2467 275.801 35.38C276.281 34.5133 276.948 33.8467 277.801 33.38C278.654 32.9133 279.634 32.68 280.741 32.68C281.821 32.68 282.781 32.9067 283.621 33.36C284.461 33.8133 285.114 34.46 285.581 35.3C286.061 36.14 286.301 37.12 286.301 38.24ZM282.801 37.34C282.801 36.7533 282.601 36.2867 282.201 35.94C281.801 35.5933 281.301 35.42 280.701 35.42C280.128 35.42 279.641 35.5867 279.241 35.92C278.854 36.2533 278.614 36.7267 278.521 37.34H282.801Z" fill="black"/>
<path d="M57.9435 76.885C58.0135 75.965 58.3685 75.245 59.0085 74.725C59.6485 74.205 60.4785 73.945 61.4985 73.945C62.1785 73.945 62.7635 74.07 63.2535 74.32C63.7535 74.56 64.1285 74.89 64.3785 75.31C64.6385 75.73 64.7685 76.205 64.7685 76.735C64.7685 77.355 64.5885 77.89 64.2285 78.34C63.8785 78.79 63.4185 79.08 62.8485 79.21V79.285C63.4985 79.445 64.0135 79.76 64.3935 80.23C64.7735 80.7 64.9635 81.315 64.9635 82.075C64.9635 82.645 64.8335 83.16 64.5735 83.62C64.3135 84.07 63.9235 84.425 63.4035 84.685C62.8835 84.945 62.2585 85.075 61.5285 85.075C60.4685 85.075 59.5985 84.8 58.9185 84.25C58.2385 83.69 57.8585 82.9 57.7785 81.88H59.0985C59.1685 82.48 59.4135 82.97 59.8335 83.35C60.2535 83.73 60.8135 83.92 61.5135 83.92C62.2135 83.92 62.7435 83.74 63.1035 83.38C63.4735 83.01 63.6585 82.535 63.6585 81.955C63.6585 81.205 63.4085 80.665 62.9085 80.335C62.4085 80.005 61.6535 79.84 60.6435 79.84H60.2985V78.7H60.6585C61.5785 78.69 62.2735 78.54 62.7435 78.25C63.2135 77.95 63.4485 77.49 63.4485 76.87C63.4485 76.34 63.2735 75.915 62.9235 75.595C62.5835 75.275 62.0935 75.115 61.4535 75.115C60.8335 75.115 60.3335 75.275 59.9535 75.595C59.5735 75.915 59.3485 76.345 59.2785 76.885H57.9435ZM66.4465 75.4V74.155H69.2665V85H67.8865V75.4H66.4465ZM82.0152 82.675H77.4552L76.6152 85H75.1752L78.9552 74.605H80.5302L84.2952 85H82.8552L82.0152 82.675ZM81.6252 81.565L79.7352 76.285L77.8452 81.565H81.6252ZM89.3326 76.645C90.0426 76.645 90.6626 76.8 91.1926 77.11C91.7326 77.42 92.1326 77.81 92.3926 78.28V76.78H93.7726V85.18C93.7726 85.93 93.6126 86.595 93.2926 87.175C92.9726 87.765 92.5126 88.225 91.9126 88.555C91.3226 88.885 90.6326 89.05 89.8426 89.05C88.7626 89.05 87.8626 88.795 87.1426 88.285C86.4226 87.775 85.9976 87.08 85.8676 86.2H87.2176C87.3676 86.7 87.6776 87.1 88.1476 87.4C88.6176 87.71 89.1826 87.865 89.8426 87.865C90.5926 87.865 91.2026 87.63 91.6726 87.16C92.1526 86.69 92.3926 86.03 92.3926 85.18V83.455C92.1226 83.935 91.7226 84.335 91.1926 84.655C90.6626 84.975 90.0426 85.135 89.3326 85.135C88.6026 85.135 87.9376 84.955 87.3376 84.595C86.7476 84.235 86.2826 83.73 85.9426 83.08C85.6026 82.43 85.4326 81.69 85.4326 80.86C85.4326 80.02 85.6026 79.285 85.9426 78.655C86.2826 78.015 86.7476 77.52 87.3376 77.17C87.9376 76.82 88.6026 76.645 89.3326 76.645ZM92.3926 80.875C92.3926 80.255 92.2676 79.715 92.0176 79.255C91.7676 78.795 91.4276 78.445 90.9976 78.205C90.5776 77.955 90.1126 77.83 89.6026 77.83C89.0926 77.83 88.6276 77.95 88.2076 78.19C87.7876 78.43 87.4526 78.78 87.2026 79.24C86.9526 79.7 86.8276 80.24 86.8276 80.86C86.8276 81.49 86.9526 82.04 87.2026 82.51C87.4526 82.97 87.7876 83.325 88.2076 83.575C88.6276 83.815 89.0926 83.935 89.6026 83.935C90.1126 83.935 90.5776 83.815 90.9976 83.575C91.4276 83.325 91.7676 82.97 92.0176 82.51C92.2676 82.04 92.3926 81.495 92.3926 80.875ZM103.369 76.78V85H102.004V83.785C101.744 84.205 101.379 84.535 100.909 84.775C100.449 85.005 99.9393 85.12 99.3793 85.12C98.7393 85.12 98.1643 84.99 97.6543 84.73C97.1443 84.46 96.7393 84.06 96.4393 83.53C96.1493 83 96.0043 82.355 96.0043 81.595V76.78H97.3543V81.415C97.3543 82.225 97.5593 82.85 97.9693 83.29C98.3793 83.72 98.9393 83.935 99.6493 83.935C100.379 83.935 100.954 83.71 101.374 83.26C101.794 82.81 102.004 82.155 102.004 81.295V76.78H103.369ZM108.584 85.135C107.954 85.135 107.389 85.03 106.889 84.82C106.389 84.6 105.994 84.3 105.704 83.92C105.414 83.53 105.254 83.085 105.224 82.585H106.634C106.674 82.995 106.864 83.33 107.204 83.59C107.554 83.85 108.009 83.98 108.569 83.98C109.089 83.98 109.499 83.865 109.799 83.635C110.099 83.405 110.249 83.115 110.249 82.765C110.249 82.405 110.089 82.14 109.769 81.97C109.449 81.79 108.954 81.615 108.284 81.445C107.674 81.285 107.174 81.125 106.784 80.965C106.404 80.795 106.074 80.55 105.794 80.23C105.524 79.9 105.389 79.47 105.389 78.94C105.389 78.52 105.514 78.135 105.764 77.785C106.014 77.435 106.369 77.16 106.829 76.96C107.289 76.75 107.814 76.645 108.404 76.645C109.314 76.645 110.049 76.875 110.609 77.335C111.169 77.795 111.469 78.425 111.509 79.225H110.144C110.114 78.795 109.939 78.45 109.619 78.19C109.309 77.93 108.889 77.8 108.359 77.8C107.869 77.8 107.479 77.905 107.189 78.115C106.899 78.325 106.754 78.6 106.754 78.94C106.754 79.21 106.839 79.435 107.009 79.615C107.189 79.785 107.409 79.925 107.669 80.035C107.939 80.135 108.309 80.25 108.779 80.38C109.369 80.54 109.849 80.7 110.219 80.86C110.589 81.01 110.904 81.24 111.164 81.55C111.434 81.86 111.574 82.265 111.584 82.765C111.584 83.215 111.459 83.62 111.209 83.98C110.959 84.34 110.604 84.625 110.144 84.835C109.694 85.035 109.174 85.135 108.584 85.135ZM115.176 77.905V82.75C115.176 83.15 115.261 83.435 115.431 83.605C115.601 83.765 115.896 83.845 116.316 83.845H117.321V85H116.091C115.331 85 114.761 84.825 114.381 84.475C114.001 84.125 113.811 83.55 113.811 82.75V77.905H112.746V76.78H113.811V74.71H115.176V76.78H117.321V77.905H115.176ZM126.265 76.78V85H124.9V83.785C124.64 84.205 124.275 84.535 123.805 84.775C123.345 85.005 122.835 85.12 122.275 85.12C121.635 85.12 121.06 84.99 120.55 84.73C120.04 84.46 119.635 84.06 119.335 83.53C119.045 83 118.9 82.355 118.9 81.595V76.78H120.25V81.415C120.25 82.225 120.455 82.85 120.865 83.29C121.275 83.72 121.835 83.935 122.545 83.935C123.275 83.935 123.85 83.71 124.27 83.26C124.69 82.81 124.9 82.155 124.9 81.295V76.78H126.265ZM131.48 85.135C130.85 85.135 130.285 85.03 129.785 84.82C129.285 84.6 128.89 84.3 128.6 83.92C128.31 83.53 128.15 83.085 128.12 82.585H129.53C129.57 82.995 129.76 83.33 130.1 83.59C130.45 83.85 130.905 83.98 131.465 83.98C131.985 83.98 132.395 83.865 132.695 83.635C132.995 83.405 133.145 83.115 133.145 82.765C133.145 82.405 132.985 82.14 132.665 81.97C132.345 81.79 131.85 81.615 131.18 81.445C130.57 81.285 130.07 81.125 129.68 80.965C129.3 80.795 128.97 80.55 128.69 80.23C128.42 79.9 128.285 79.47 128.285 78.94C128.285 78.52 128.41 78.135 128.66 77.785C128.91 77.435 129.265 77.16 129.725 76.96C130.185 76.75 130.71 76.645 131.3 76.645C132.21 76.645 132.945 76.875 133.505 77.335C134.065 77.795 134.365 78.425 134.405 79.225H133.04C133.01 78.795 132.835 78.45 132.515 78.19C132.205 77.93 131.785 77.8 131.255 77.8C130.765 77.8 130.375 77.905 130.085 78.115C129.795 78.325 129.65 78.6 129.65 78.94C129.65 79.21 129.735 79.435 129.905 79.615C130.085 79.785 130.305 79.925 130.565 80.035C130.835 80.135 131.205 80.25 131.675 80.38C132.265 80.54 132.745 80.7 133.115 80.86C133.485 81.01 133.8 81.24 134.06 81.55C134.33 81.86 134.47 82.265 134.48 82.765C134.48 83.215 134.355 83.62 134.105 83.98C133.855 84.34 133.5 84.625 133.04 84.835C132.59 85.035 132.07 85.135 131.48 85.135ZM140.015 83.905C141.285 82.885 142.28 82.05 143 81.4C143.72 80.74 144.325 80.055 144.815 79.345C145.315 78.625 145.565 77.92 145.565 77.23C145.565 76.58 145.405 76.07 145.085 75.7C144.775 75.32 144.27 75.13 143.57 75.13C142.89 75.13 142.36 75.345 141.98 75.775C141.61 76.195 141.41 76.76 141.38 77.47H140.06C140.1 76.35 140.44 75.485 141.08 74.875C141.72 74.265 142.545 73.96 143.555 73.96C144.585 73.96 145.4 74.245 146 74.815C146.61 75.385 146.915 76.17 146.915 77.17C146.915 78 146.665 78.81 146.165 79.6C145.675 80.38 145.115 81.07 144.485 81.67C143.855 82.26 143.05 82.95 142.07 83.74H147.23V84.88H140.015V83.905ZM148.808 79.465C148.808 77.745 149.088 76.405 149.648 75.445C150.208 74.475 151.188 73.99 152.588 73.99C153.978 73.99 154.953 74.475 155.513 75.445C156.073 76.405 156.353 77.745 156.353 79.465C156.353 81.215 156.073 82.575 155.513 83.545C154.953 84.515 153.978 85 152.588 85C151.188 85 150.208 84.515 149.648 83.545C149.088 82.575 148.808 81.215 148.808 79.465ZM155.003 79.465C155.003 78.595 154.943 77.86 154.823 77.26C154.713 76.65 154.478 76.16 154.118 75.79C153.768 75.42 153.258 75.235 152.588 75.235C151.908 75.235 151.388 75.42 151.028 75.79C150.678 76.16 150.443 76.65 150.323 77.26C150.213 77.86 150.158 78.595 150.158 79.465C150.158 80.365 150.213 81.12 150.323 81.73C150.443 82.34 150.678 82.83 151.028 83.2C151.388 83.57 151.908 83.755 152.588 83.755C153.258 83.755 153.768 83.57 154.118 83.2C154.478 82.83 154.713 82.34 154.823 81.73C154.943 81.12 155.003 80.365 155.003 79.465ZM158.062 83.905C159.332 82.885 160.327 82.05 161.047 81.4C161.767 80.74 162.372 80.055 162.862 79.345C163.362 78.625 163.612 77.92 163.612 77.23C163.612 76.58 163.452 76.07 163.132 75.7C162.822 75.32 162.317 75.13 161.617 75.13C160.937 75.13 160.407 75.345 160.027 75.775C159.657 76.195 159.457 76.76 159.427 77.47H158.107C158.147 76.35 158.487 75.485 159.127 74.875C159.767 74.265 160.592 73.96 161.602 73.96C162.632 73.96 163.447 74.245 164.047 74.815C164.657 75.385 164.962 76.17 164.962 77.17C164.962 78 164.712 78.81 164.212 79.6C163.722 80.38 163.162 81.07 162.532 81.67C161.902 82.26 161.097 82.95 160.117 83.74H165.277V84.88H158.062V83.905ZM166.495 75.4V74.155H169.315V85H167.935V75.4H166.495ZM181.584 78.925V80.08H175.599V78.925H181.584ZM187.56 75.4V74.155H190.38V85H189V75.4H187.56ZM199.399 75.22L195.229 85H193.849L198.079 75.355H192.289V74.185H199.399V75.22ZM208.452 85.105C207.762 85.105 207.142 84.985 206.592 84.745C206.052 84.495 205.627 84.155 205.317 83.725C205.007 83.285 204.847 82.78 204.837 82.21H206.292C206.342 82.7 206.542 83.115 206.892 83.455C207.252 83.785 207.772 83.95 208.452 83.95C209.102 83.95 209.612 83.79 209.982 83.47C210.362 83.14 210.552 82.72 210.552 82.21C210.552 81.81 210.442 81.485 210.222 81.235C210.002 80.985 209.727 80.795 209.397 80.665C209.067 80.535 208.622 80.395 208.062 80.245C207.372 80.065 206.817 79.885 206.397 79.705C205.987 79.525 205.632 79.245 205.332 78.865C205.042 78.475 204.897 77.955 204.897 77.305C204.897 76.735 205.042 76.23 205.332 75.79C205.622 75.35 206.027 75.01 206.547 74.77C207.077 74.53 207.682 74.41 208.362 74.41C209.342 74.41 210.142 74.655 210.762 75.145C211.392 75.635 211.747 76.285 211.827 77.095H210.327C210.277 76.695 210.067 76.345 209.697 76.045C209.327 75.735 208.837 75.58 208.227 75.58C207.657 75.58 207.192 75.73 206.832 76.03C206.472 76.32 206.292 76.73 206.292 77.26C206.292 77.64 206.397 77.95 206.607 78.19C206.827 78.43 207.092 78.615 207.402 78.745C207.722 78.865 208.167 79.005 208.737 79.165C209.427 79.355 209.982 79.545 210.402 79.735C210.822 79.915 211.182 80.2 211.482 80.59C211.782 80.97 211.932 81.49 211.932 82.15C211.932 82.66 211.797 83.14 211.527 83.59C211.257 84.04 210.857 84.405 210.327 84.685C209.797 84.965 209.172 85.105 208.452 85.105ZM221.441 80.575C221.441 80.835 221.426 81.11 221.396 81.4H214.826C214.876 82.21 215.151 82.845 215.651 83.305C216.161 83.755 216.776 83.98 217.496 83.98C218.086 83.98 218.576 83.845 218.966 83.575C219.366 83.295 219.646 82.925 219.806 82.465H221.276C221.056 83.255 220.616 83.9 219.956 84.4C219.296 84.89 218.476 85.135 217.496 85.135C216.716 85.135 216.016 84.96 215.396 84.61C214.786 84.26 214.306 83.765 213.956 83.125C213.606 82.475 213.431 81.725 213.431 80.875C213.431 80.025 213.601 79.28 213.941 78.64C214.281 78 214.756 77.51 215.366 77.17C215.986 76.82 216.696 76.645 217.496 76.645C218.276 76.645 218.966 76.815 219.566 77.155C220.166 77.495 220.626 77.965 220.946 78.565C221.276 79.155 221.441 79.825 221.441 80.575ZM220.031 80.29C220.031 79.77 219.916 79.325 219.686 78.955C219.456 78.575 219.141 78.29 218.741 78.1C218.351 77.9 217.916 77.8 217.436 77.8C216.746 77.8 216.156 78.02 215.666 78.46C215.186 78.9 214.911 79.51 214.841 80.29H220.031ZM224.607 78.295C224.877 77.825 225.277 77.435 225.807 77.125C226.347 76.805 226.972 76.645 227.682 76.645C228.412 76.645 229.072 76.82 229.662 77.17C230.262 77.52 230.732 78.015 231.072 78.655C231.412 79.285 231.582 80.02 231.582 80.86C231.582 81.69 231.412 82.43 231.072 83.08C230.732 83.73 230.262 84.235 229.662 84.595C229.072 84.955 228.412 85.135 227.682 85.135C226.982 85.135 226.362 84.98 225.822 84.67C225.292 84.35 224.887 83.955 224.607 83.485V88.9H223.242V76.78H224.607V78.295ZM230.187 80.86C230.187 80.24 230.062 79.7 229.812 79.24C229.562 78.78 229.222 78.43 228.792 78.19C228.372 77.95 227.907 77.83 227.397 77.83C226.897 77.83 226.432 77.955 226.002 78.205C225.582 78.445 225.242 78.8 224.982 79.27C224.732 79.73 224.607 80.265 224.607 80.875C224.607 81.495 224.732 82.04 224.982 82.51C225.242 82.97 225.582 83.325 226.002 83.575C226.432 83.815 226.897 83.935 227.397 83.935C227.907 83.935 228.372 83.815 228.792 83.575C229.222 83.325 229.562 82.97 229.812 82.51C230.062 82.04 230.187 81.49 230.187 80.86ZM235.044 77.905V82.75C235.044 83.15 235.129 83.435 235.299 83.605C235.469 83.765 235.764 83.845 236.184 83.845H237.189V85H235.959C235.199 85 234.629 84.825 234.249 84.475C233.869 84.125 233.679 83.55 233.679 82.75V77.905H232.614V76.78H233.679V74.71H235.044V76.78H237.189V77.905H235.044ZM246.343 80.575C246.343 80.835 246.328 81.11 246.298 81.4H239.728C239.778 82.21 240.053 82.845 240.553 83.305C241.063 83.755 241.678 83.98 242.398 83.98C242.988 83.98 243.478 83.845 243.868 83.575C244.268 83.295 244.548 82.925 244.708 82.465H246.178C245.958 83.255 245.518 83.9 244.858 84.4C244.198 84.89 243.378 85.135 242.398 85.135C241.618 85.135 240.918 84.96 240.298 84.61C239.688 84.26 239.208 83.765 238.858 83.125C238.508 82.475 238.333 81.725 238.333 80.875C238.333 80.025 238.503 79.28 238.843 78.64C239.183 78 239.658 77.51 240.268 77.17C240.888 76.82 241.598 76.645 242.398 76.645C243.178 76.645 243.868 76.815 244.468 77.155C245.068 77.495 245.528 77.965 245.848 78.565C246.178 79.155 246.343 79.825 246.343 80.575ZM244.933 80.29C244.933 79.77 244.818 79.325 244.588 78.955C244.358 78.575 244.043 78.29 243.643 78.1C243.253 77.9 242.818 77.8 242.338 77.8C241.648 77.8 241.058 78.02 240.568 78.46C240.088 78.9 239.813 79.51 239.743 80.29H244.933ZM258.03 76.63C258.67 76.63 259.24 76.765 259.74 77.035C260.24 77.295 260.635 77.69 260.925 78.22C261.215 78.75 261.36 79.395 261.36 80.155V85H260.01V80.35C260.01 79.53 259.805 78.905 259.395 78.475C258.995 78.035 258.45 77.815 257.76 77.815C257.05 77.815 256.485 78.045 256.065 78.505C255.645 78.955 255.435 79.61 255.435 80.47V85H254.085V80.35C254.085 79.53 253.88 78.905 253.47 78.475C253.07 78.035 252.525 77.815 251.835 77.815C251.125 77.815 250.56 78.045 250.14 78.505C249.72 78.955 249.51 79.61 249.51 80.47V85H248.145V76.78H249.51V77.965C249.78 77.535 250.14 77.205 250.59 76.975C251.05 76.745 251.555 76.63 252.105 76.63C252.795 76.63 253.405 76.785 253.935 77.095C254.465 77.405 254.86 77.86 255.12 78.46C255.35 77.88 255.73 77.43 256.26 77.11C256.79 76.79 257.38 76.63 258.03 76.63ZM264.964 78.31C265.244 77.82 265.654 77.42 266.194 77.11C266.734 76.8 267.349 76.645 268.039 76.645C268.779 76.645 269.444 76.82 270.034 77.17C270.624 77.52 271.089 78.015 271.429 78.655C271.769 79.285 271.939 80.02 271.939 80.86C271.939 81.69 271.769 82.43 271.429 83.08C271.089 83.73 270.619 84.235 270.019 84.595C269.429 84.955 268.769 85.135 268.039 85.135C267.329 85.135 266.704 84.98 266.164 84.67C265.634 84.36 265.234 83.965 264.964 83.485V85H263.599V73.9H264.964V78.31ZM270.544 80.86C270.544 80.24 270.419 79.7 270.169 79.24C269.919 78.78 269.579 78.43 269.149 78.19C268.729 77.95 268.264 77.83 267.754 77.83C267.254 77.83 266.789 77.955 266.359 78.205C265.939 78.445 265.599 78.8 265.339 79.27C265.089 79.73 264.964 80.265 264.964 80.875C264.964 81.495 265.089 82.04 265.339 82.51C265.599 82.97 265.939 83.325 266.359 83.575C266.789 83.815 267.254 83.935 267.754 83.935C268.264 83.935 268.729 83.815 269.149 83.575C269.579 83.325 269.919 82.97 270.169 82.51C270.419 82.04 270.544 81.49 270.544 80.86ZM281.236 80.575C281.236 80.835 281.221 81.11 281.191 81.4H274.621C274.671 82.21 274.946 82.845 275.446 83.305C275.956 83.755 276.571 83.98 277.291 83.98C277.881 83.98 278.371 83.845 278.761 83.575C279.161 83.295 279.441 82.925 279.601 82.465H281.071C280.851 83.255 280.411 83.9 279.751 84.4C279.091 84.89 278.271 85.135 277.291 85.135C276.511 85.135 275.811 84.96 275.191 84.61C274.581 84.26 274.101 83.765 273.751 83.125C273.401 82.475 273.226 81.725 273.226 80.875C273.226 80.025 273.396 79.28 273.736 78.64C274.076 78 274.551 77.51 275.161 77.17C275.781 76.82 276.491 76.645 277.291 76.645C278.071 76.645 278.761 76.815 279.361 77.155C279.961 77.495 280.421 77.965 280.741 78.565C281.071 79.155 281.236 79.825 281.236 80.575ZM279.826 80.29C279.826 79.77 279.711 79.325 279.481 78.955C279.251 78.575 278.936 78.29 278.536 78.1C278.146 77.9 277.711 77.8 277.231 77.8C276.541 77.8 275.951 78.02 275.461 78.46C274.981 78.9 274.706 79.51 274.636 80.29H279.826ZM284.402 78.115C284.642 77.645 284.982 77.28 285.422 77.02C285.872 76.76 286.417 76.63 287.057 76.63V78.04H286.697C285.167 78.04 284.402 78.87 284.402 80.53V85H283.037V76.78H284.402V78.115ZM292.242 83.905C293.512 82.885 294.507 82.05 295.227 81.4C295.947 80.74 296.552 80.055 297.042 79.345C297.542 78.625 297.792 77.92 297.792 77.23C297.792 76.58 297.632 76.07 297.312 75.7C297.002 75.32 296.497 75.13 295.797 75.13C295.117 75.13 294.587 75.345 294.207 75.775C293.837 76.195 293.637 76.76 293.607 77.47H292.287C292.327 76.35 292.667 75.485 293.307 74.875C293.947 74.265 294.772 73.96 295.782 73.96C296.812 73.96 297.627 74.245 298.227 74.815C298.837 75.385 299.142 76.17 299.142 77.17C299.142 78 298.892 78.81 298.392 79.6C297.902 80.38 297.342 81.07 296.712 81.67C296.082 82.26 295.277 82.95 294.297 83.74H299.457V84.88H292.242V83.905ZM301.035 79.465C301.035 77.745 301.315 76.405 301.875 75.445C302.435 74.475 303.415 73.99 304.815 73.99C306.205 73.99 307.18 74.475 307.74 75.445C308.3 76.405 308.58 77.745 308.58 79.465C308.58 81.215 308.3 82.575 307.74 83.545C307.18 84.515 306.205 85 304.815 85C303.415 85 302.435 84.515 301.875 83.545C301.315 82.575 301.035 81.215 301.035 79.465ZM307.23 79.465C307.23 78.595 307.17 77.86 307.05 77.26C306.94 76.65 306.705 76.16 306.345 75.79C305.995 75.42 305.485 75.235 304.815 75.235C304.135 75.235 303.615 75.42 303.255 75.79C302.905 76.16 302.67 76.65 302.55 77.26C302.44 77.86 302.385 78.595 302.385 79.465C302.385 80.365 302.44 81.12 302.55 81.73C302.67 82.34 302.905 82.83 303.255 83.2C303.615 83.57 304.135 83.755 304.815 83.755C305.485 83.755 305.995 83.57 306.345 83.2C306.705 82.83 306.94 82.34 307.05 81.73C307.17 81.12 307.23 80.365 307.23 79.465ZM310.289 83.905C311.559 82.885 312.554 82.05 313.274 81.4C313.994 80.74 314.599 80.055 315.089 79.345C315.589 78.625 315.839 77.92 315.839 77.23C315.839 76.58 315.679 76.07 315.359 75.7C315.049 75.32 314.544 75.13 313.844 75.13C313.164 75.13 312.634 75.345 312.254 75.775C311.884 76.195 311.684 76.76 311.654 77.47H310.334C310.374 76.35 310.714 75.485 311.354 74.875C311.994 74.265 312.819 73.96 313.829 73.96C314.859 73.96 315.674 74.245 316.274 74.815C316.884 75.385 317.189 76.17 317.189 77.17C317.189 78 316.939 78.81 316.439 79.6C315.949 80.38 315.389 81.07 314.759 81.67C314.129 82.26 313.324 82.95 312.344 83.74H317.504V84.88H310.289V83.905ZM318.722 75.4V74.155H321.542V85H320.162V75.4H318.722Z" fill="black"/>
<rect x="922.709" y="220" width="398.136" height="118.205" rx="5" transform="rotate(-180 922.709 220)" fill="white"/>
<path d="M500 115.645L527.146 102.096V129.194L500 115.645Z" fill="white"/>
<path d="M582.557 132.96C584.037 132.96 585.33 133.253 586.437 133.84C587.543 134.427 588.397 135.253 588.997 136.32C589.61 137.373 589.917 138.593 589.917 139.98C589.917 141.353 589.61 142.573 588.997 143.64C588.397 144.707 587.537 145.533 586.417 146.12C585.31 146.707 584.023 147 582.557 147H577.297V132.96H582.557ZM582.337 144.04C583.63 144.04 584.637 143.687 585.357 142.98C586.077 142.273 586.437 141.273 586.437 139.98C586.437 138.687 586.077 137.68 585.357 136.96C584.637 136.24 583.63 135.88 582.337 135.88H580.717V144.04H582.337ZM600.428 138.56V141.4H591.628V138.56H600.428ZM608.689 132.96C610.169 132.96 611.463 133.253 612.569 133.84C613.676 134.427 614.529 135.253 615.129 136.32C615.743 137.373 616.049 138.593 616.049 139.98C616.049 141.353 615.743 142.573 615.129 143.64C614.529 144.707 613.669 145.533 612.549 146.12C611.443 146.707 610.156 147 608.689 147H603.429V132.96H608.689ZM608.469 144.04C609.763 144.04 610.769 143.687 611.489 142.98C612.209 142.273 612.569 141.273 612.569 139.98C612.569 138.687 612.209 137.68 611.489 136.96C610.769 136.24 609.763 135.88 608.469 135.88H606.849V144.04H608.469ZM617.281 141.4C617.281 140.253 617.494 139.247 617.921 138.38C618.361 137.513 618.954 136.847 619.701 136.38C620.447 135.913 621.281 135.68 622.201 135.68C622.987 135.68 623.674 135.84 624.261 136.16C624.861 136.48 625.321 136.9 625.641 137.42V135.84H629.061V147H625.641V145.42C625.307 145.94 624.841 146.36 624.241 146.68C623.654 147 622.967 147.16 622.181 147.16C621.274 147.16 620.447 146.927 619.701 146.46C618.954 145.98 618.361 145.307 617.921 144.44C617.494 143.56 617.281 142.547 617.281 141.4ZM625.641 141.42C625.641 140.567 625.401 139.893 624.921 139.4C624.454 138.907 623.881 138.66 623.201 138.66C622.521 138.66 621.941 138.907 621.461 139.4C620.994 139.88 620.761 140.547 620.761 141.4C620.761 142.253 620.994 142.933 621.461 143.44C621.941 143.933 622.521 144.18 623.201 144.18C623.881 144.18 624.454 143.933 624.921 143.44C625.401 142.947 625.641 142.273 625.641 141.42ZM642.935 135.84L635.935 152.3H632.255L634.815 146.62L630.275 135.84H634.095L636.675 142.82L639.235 135.84H642.935ZM667.73 132.96L664.07 147H659.93L657.69 137.76L655.37 147H651.23L647.67 132.96H651.33L653.35 143.18L655.85 132.96H659.61L662.01 143.18L664.05 132.96H667.73ZM674.525 147.16C673.432 147.16 672.445 146.927 671.565 146.46C670.698 145.993 670.012 145.327 669.505 144.46C669.012 143.593 668.765 142.58 668.765 141.42C668.765 140.273 669.018 139.267 669.525 138.4C670.032 137.52 670.725 136.847 671.605 136.38C672.485 135.913 673.472 135.68 674.565 135.68C675.658 135.68 676.645 135.913 677.525 136.38C678.405 136.847 679.098 137.52 679.605 138.4C680.112 139.267 680.365 140.273 680.365 141.42C680.365 142.567 680.105 143.58 679.585 144.46C679.078 145.327 678.378 145.993 677.485 146.46C676.605 146.927 675.618 147.16 674.525 147.16ZM674.525 144.2C675.178 144.2 675.732 143.96 676.185 143.48C676.652 143 676.885 142.313 676.885 141.42C676.885 140.527 676.658 139.84 676.205 139.36C675.765 138.88 675.218 138.64 674.565 138.64C673.898 138.64 673.345 138.88 672.905 139.36C672.465 139.827 672.245 140.513 672.245 141.42C672.245 142.313 672.458 143 672.885 143.48C673.325 143.96 673.872 144.2 674.525 144.2ZM685.599 137.7C685.999 137.087 686.499 136.607 687.099 136.26C687.699 135.9 688.366 135.72 689.099 135.72V139.34H688.159C687.306 139.34 686.666 139.527 686.239 139.9C685.813 140.26 685.599 140.9 685.599 141.82V147H682.179V135.84H685.599V137.7ZM697.554 147L694.154 142.32V147H690.734V132.2H694.154V140.38L697.534 135.84H701.754L697.114 141.44L701.794 147H697.554ZM707.637 147.16C706.664 147.16 705.797 146.993 705.037 146.66C704.277 146.327 703.677 145.873 703.237 145.3C702.797 144.713 702.551 144.06 702.497 143.34H705.877C705.917 143.727 706.097 144.04 706.417 144.28C706.737 144.52 707.131 144.64 707.597 144.64C708.024 144.64 708.351 144.56 708.577 144.4C708.817 144.227 708.937 144.007 708.937 143.74C708.937 143.42 708.771 143.187 708.437 143.04C708.104 142.88 707.564 142.707 706.817 142.52C706.017 142.333 705.351 142.14 704.817 141.94C704.284 141.727 703.824 141.4 703.437 140.96C703.051 140.507 702.857 139.9 702.857 139.14C702.857 138.5 703.031 137.92 703.377 137.4C703.737 136.867 704.257 136.447 704.937 136.14C705.631 135.833 706.451 135.68 707.397 135.68C708.797 135.68 709.897 136.027 710.697 136.72C711.511 137.413 711.977 138.333 712.097 139.48H708.937C708.884 139.093 708.711 138.787 708.417 138.56C708.137 138.333 707.764 138.22 707.297 138.22C706.897 138.22 706.591 138.3 706.377 138.46C706.164 138.607 706.057 138.813 706.057 139.08C706.057 139.4 706.224 139.64 706.557 139.8C706.904 139.96 707.437 140.12 708.157 140.28C708.984 140.493 709.657 140.707 710.177 140.92C710.697 141.12 711.151 141.453 711.537 141.92C711.937 142.373 712.144 142.987 712.157 143.76C712.157 144.413 711.971 145 711.597 145.52C711.237 146.027 710.711 146.427 710.017 146.72C709.337 147.013 708.544 147.16 707.637 147.16ZM721.11 135.72C722.39 135.72 723.416 136.147 724.19 137C724.963 137.84 725.35 139 725.35 140.48V147H721.95V140.94C721.95 140.193 721.756 139.613 721.37 139.2C720.983 138.787 720.463 138.58 719.81 138.58C719.156 138.58 718.636 138.787 718.25 139.2C717.863 139.613 717.67 140.193 717.67 140.94V147H714.25V132.2H717.67V137.34C718.016 136.847 718.49 136.453 719.09 136.16C719.69 135.867 720.363 135.72 721.11 135.72ZM732.806 147.16C731.713 147.16 730.726 146.927 729.846 146.46C728.98 145.993 728.293 145.327 727.786 144.46C727.293 143.593 727.046 142.58 727.046 141.42C727.046 140.273 727.3 139.267 727.806 138.4C728.313 137.52 729.006 136.847 729.886 136.38C730.766 135.913 731.753 135.68 732.846 135.68C733.94 135.68 734.926 135.913 735.806 136.38C736.686 136.847 737.38 137.52 737.886 138.4C738.393 139.267 738.646 140.273 738.646 141.42C738.646 142.567 738.386 143.58 737.866 144.46C737.36 145.327 736.66 145.993 735.766 146.46C734.886 146.927 733.9 147.16 732.806 147.16ZM732.806 144.2C733.46 144.2 734.013 143.96 734.466 143.48C734.933 143 735.166 142.313 735.166 141.42C735.166 140.527 734.94 139.84 734.486 139.36C734.046 138.88 733.5 138.64 732.846 138.64C732.18 138.64 731.626 138.88 731.186 139.36C730.746 139.827 730.526 140.513 730.526 141.42C730.526 142.313 730.74 143 731.166 143.48C731.606 143.96 732.153 144.2 732.806 144.2ZM743.881 137.42C744.214 136.9 744.674 136.48 745.261 136.16C745.847 135.84 746.534 135.68 747.321 135.68C748.241 135.68 749.074 135.913 749.821 136.38C750.567 136.847 751.154 137.513 751.581 138.38C752.021 139.247 752.241 140.253 752.241 141.4C752.241 142.547 752.021 143.56 751.581 144.44C751.154 145.307 750.567 145.98 749.821 146.46C749.074 146.927 748.241 147.16 747.321 147.16C746.547 147.16 745.861 147 745.261 146.68C744.674 146.36 744.214 145.947 743.881 145.44V152.32H740.461V135.84H743.881V137.42ZM748.761 141.4C748.761 140.547 748.521 139.88 748.041 139.4C747.574 138.907 746.994 138.66 746.301 138.66C745.621 138.66 745.041 138.907 744.561 139.4C744.094 139.893 743.861 140.567 743.861 141.42C743.861 142.273 744.094 142.947 744.561 143.44C745.041 143.933 745.621 144.18 746.301 144.18C746.981 144.18 747.561 143.933 748.041 143.44C748.521 142.933 748.761 142.253 748.761 141.4ZM774.671 132.96V147H771.251V141.22H765.931V147H762.511V132.96H765.931V138.46H771.251V132.96H774.671ZM782.22 147.16C781.127 147.16 780.14 146.927 779.26 146.46C778.394 145.993 777.707 145.327 777.2 144.46C776.707 143.593 776.46 142.58 776.46 141.42C776.46 140.273 776.714 139.267 777.22 138.4C777.727 137.52 778.42 136.847 779.3 136.38C780.18 135.913 781.167 135.68 782.26 135.68C783.354 135.68 784.34 135.913 785.22 136.38C786.1 136.847 786.794 137.52 787.3 138.4C787.807 139.267 788.06 140.273 788.06 141.42C788.06 142.567 787.8 143.58 787.28 144.46C786.774 145.327 786.074 145.993 785.18 146.46C784.3 146.927 783.314 147.16 782.22 147.16ZM782.22 144.2C782.874 144.2 783.427 143.96 783.88 143.48C784.347 143 784.58 142.313 784.58 141.42C784.58 140.527 784.354 139.84 783.9 139.36C783.46 138.88 782.914 138.64 782.26 138.64C781.594 138.64 781.04 138.88 780.6 139.36C780.16 139.827 779.94 140.513 779.94 141.42C779.94 142.313 780.154 143 780.58 143.48C781.02 143.96 781.567 144.2 782.22 144.2ZM793.295 132.2V147H789.875V132.2H793.295ZM800.853 147.16C799.76 147.16 798.773 146.927 797.893 146.46C797.027 145.993 796.34 145.327 795.833 144.46C795.34 143.593 795.093 142.58 795.093 141.42C795.093 140.273 795.347 139.267 795.853 138.4C796.36 137.52 797.053 136.847 797.933 136.38C798.813 135.913 799.8 135.68 800.893 135.68C801.987 135.68 802.973 135.913 803.853 136.38C804.733 136.847 805.427 137.52 805.933 138.4C806.44 139.267 806.693 140.273 806.693 141.42C806.693 142.567 806.433 143.58 805.913 144.46C805.407 145.327 804.707 145.993 803.813 146.46C802.933 146.927 801.947 147.16 800.853 147.16ZM800.853 144.2C801.507 144.2 802.06 143.96 802.513 143.48C802.98 143 803.213 142.313 803.213 141.42C803.213 140.527 802.987 139.84 802.533 139.36C802.093 138.88 801.547 138.64 800.893 138.64C800.227 138.64 799.673 138.88 799.233 139.36C798.793 139.827 798.573 140.513 798.573 141.42C798.573 142.313 798.787 143 799.213 143.48C799.653 143.96 800.2 144.2 800.853 144.2ZM812.748 135.68C813.534 135.68 814.221 135.84 814.808 136.16C815.408 136.48 815.868 136.9 816.188 137.42V135.84H819.608V146.98C819.608 148.007 819.401 148.933 818.988 149.76C818.588 150.6 817.968 151.267 817.128 151.76C816.301 152.253 815.268 152.5 814.028 152.5C812.374 152.5 811.034 152.107 810.008 151.32C808.981 150.547 808.394 149.493 808.248 148.16H811.628C811.734 148.587 811.988 148.92 812.388 149.16C812.788 149.413 813.281 149.54 813.868 149.54C814.574 149.54 815.134 149.333 815.548 148.92C815.974 148.52 816.188 147.873 816.188 146.98V145.4C815.854 145.92 815.394 146.347 814.808 146.68C814.221 147 813.534 147.16 812.748 147.16C811.828 147.16 810.994 146.927 810.248 146.46C809.501 145.98 808.908 145.307 808.468 144.44C808.041 143.56 807.828 142.547 807.828 141.4C807.828 140.253 808.041 139.247 808.468 138.38C808.908 137.513 809.501 136.847 810.248 136.38C810.994 135.913 811.828 135.68 812.748 135.68ZM816.188 141.42C816.188 140.567 815.948 139.893 815.468 139.4C815.001 138.907 814.428 138.66 813.748 138.66C813.068 138.66 812.488 138.907 812.008 139.4C811.541 139.88 811.308 140.547 811.308 141.4C811.308 142.253 811.541 142.933 812.008 143.44C812.488 143.933 813.068 144.18 813.748 144.18C814.428 144.18 815.001 143.933 815.468 143.44C815.948 142.947 816.188 142.273 816.188 141.42ZM833.482 135.84L826.482 152.3H822.802L825.362 146.62L820.822 135.84H824.642L827.222 142.82L829.782 135.84H833.482ZM838.697 144.4V141.64L845.017 132.6H848.837V141.44H850.477V144.4H848.837V147H845.417V144.4H838.697ZM845.657 136.36L842.297 141.44H845.657V136.36ZM854.092 147.16C853.492 147.16 852.999 146.987 852.612 146.64C852.239 146.28 852.052 145.84 852.052 145.32C852.052 144.787 852.239 144.34 852.612 143.98C852.999 143.62 853.492 143.44 854.092 143.44C854.679 143.44 855.159 143.62 855.532 143.98C855.919 144.34 856.112 144.787 856.112 145.32C856.112 145.84 855.919 146.28 855.532 146.64C855.159 146.987 854.679 147.16 854.092 147.16ZM857.796 139.5C857.796 137.207 858.236 135.4 859.116 134.08C860.01 132.76 861.443 132.1 863.416 132.1C865.39 132.1 866.816 132.76 867.696 134.08C868.59 135.4 869.036 137.207 869.036 139.5C869.036 141.82 868.59 143.64 867.696 144.96C866.816 146.28 865.39 146.94 863.416 146.94C861.443 146.94 860.01 146.28 859.116 144.96C858.236 143.64 857.796 141.82 857.796 139.5ZM865.676 139.5C865.676 138.153 865.53 137.12 865.236 136.4C864.943 135.667 864.336 135.3 863.416 135.3C862.496 135.3 861.89 135.667 861.596 136.4C861.303 137.12 861.156 138.153 861.156 139.5C861.156 140.407 861.21 141.16 861.316 141.76C861.423 142.347 861.636 142.827 861.956 143.2C862.29 143.56 862.776 143.74 863.416 143.74C864.056 143.74 864.536 143.56 864.856 143.2C865.19 142.827 865.41 142.347 865.516 141.76C865.623 141.16 865.676 140.407 865.676 139.5Z" fill="black"/>
<path d="M578.218 173.4V172.155H581.038V183H579.658V173.4H578.218ZM585.363 177.36C584.803 177.14 584.373 176.82 584.073 176.4C583.773 175.98 583.623 175.47 583.623 174.87C583.623 174.33 583.758 173.845 584.028 173.415C584.298 172.975 584.698 172.63 585.228 172.38C585.768 172.12 586.418 171.99 587.178 171.99C587.938 171.99 588.583 172.12 589.113 172.38C589.653 172.63 590.058 172.975 590.328 173.415C590.608 173.845 590.748 174.33 590.748 174.87C590.748 175.45 590.593 175.96 590.283 176.4C589.973 176.83 589.548 177.15 589.008 177.36C589.628 177.55 590.118 177.885 590.478 178.365C590.848 178.835 591.033 179.405 591.033 180.075C591.033 180.725 590.873 181.295 590.553 181.785C590.233 182.265 589.778 182.64 589.188 182.91C588.608 183.17 587.938 183.3 587.178 183.3C586.418 183.3 585.748 183.17 585.168 182.91C584.598 182.64 584.153 182.265 583.833 181.785C583.513 181.295 583.353 180.725 583.353 180.075C583.353 179.405 583.533 178.83 583.893 178.35C584.253 177.87 584.743 177.54 585.363 177.36ZM589.428 175.035C589.428 174.425 589.228 173.955 588.828 173.625C588.428 173.295 587.878 173.13 587.178 173.13C586.488 173.13 585.943 173.295 585.543 173.625C585.143 173.955 584.943 174.43 584.943 175.05C584.943 175.61 585.148 176.06 585.558 176.4C585.978 176.74 586.518 176.91 587.178 176.91C587.848 176.91 588.388 176.74 588.798 176.4C589.218 176.05 589.428 175.595 589.428 175.035ZM587.178 177.96C586.438 177.96 585.833 178.135 585.363 178.485C584.893 178.825 584.658 179.34 584.658 180.03C584.658 180.67 584.883 181.185 585.333 181.575C585.793 181.965 586.408 182.16 587.178 182.16C587.948 182.16 588.558 181.965 589.008 181.575C589.458 181.185 589.683 180.67 589.683 180.03C589.683 179.36 589.453 178.85 588.993 178.5C588.533 178.14 587.928 177.96 587.178 177.96ZM600.385 183.105C599.695 183.105 599.075 182.985 598.525 182.745C597.985 182.495 597.56 182.155 597.25 181.725C596.94 181.285 596.78 180.78 596.77 180.21H598.225C598.275 180.7 598.475 181.115 598.825 181.455C599.185 181.785 599.705 181.95 600.385 181.95C601.035 181.95 601.545 181.79 601.915 181.47C602.295 181.14 602.485 180.72 602.485 180.21C602.485 179.81 602.375 179.485 602.155 179.235C601.935 178.985 601.66 178.795 601.33 178.665C601 178.535 600.555 178.395 599.995 178.245C599.305 178.065 598.75 177.885 598.33 177.705C597.92 177.525 597.565 177.245 597.265 176.865C596.975 176.475 596.83 175.955 596.83 175.305C596.83 174.735 596.975 174.23 597.265 173.79C597.555 173.35 597.96 173.01 598.48 172.77C599.01 172.53 599.615 172.41 600.295 172.41C601.275 172.41 602.075 172.655 602.695 173.145C603.325 173.635 603.68 174.285 603.76 175.095H602.26C602.21 174.695 602 174.345 601.63 174.045C601.26 173.735 600.77 173.58 600.16 173.58C599.59 173.58 599.125 173.73 598.765 174.03C598.405 174.32 598.225 174.73 598.225 175.26C598.225 175.64 598.33 175.95 598.54 176.19C598.76 176.43 599.025 176.615 599.335 176.745C599.655 176.865 600.1 177.005 600.67 177.165C601.36 177.355 601.915 177.545 602.335 177.735C602.755 177.915 603.115 178.2 603.415 178.59C603.715 178.97 603.865 179.49 603.865 180.15C603.865 180.66 603.73 181.14 603.46 181.59C603.19 182.04 602.79 182.405 602.26 182.685C601.73 182.965 601.105 183.105 600.385 183.105ZM613.373 178.575C613.373 178.835 613.358 179.11 613.328 179.4H606.758C606.808 180.21 607.083 180.845 607.583 181.305C608.093 181.755 608.708 181.98 609.428 181.98C610.018 181.98 610.508 181.845 610.898 181.575C611.298 181.295 611.578 180.925 611.738 180.465H613.208C612.988 181.255 612.548 181.9 611.888 182.4C611.228 182.89 610.408 183.135 609.428 183.135C608.648 183.135 607.948 182.96 607.328 182.61C606.718 182.26 606.238 181.765 605.888 181.125C605.538 180.475 605.363 179.725 605.363 178.875C605.363 178.025 605.533 177.28 605.873 176.64C606.213 176 606.688 175.51 607.298 175.17C607.918 174.82 608.628 174.645 609.428 174.645C610.208 174.645 610.898 174.815 611.498 175.155C612.098 175.495 612.558 175.965 612.878 176.565C613.208 177.155 613.373 177.825 613.373 178.575ZM611.963 178.29C611.963 177.77 611.848 177.325 611.618 176.955C611.388 176.575 611.073 176.29 610.673 176.1C610.283 175.9 609.848 175.8 609.368 175.8C608.678 175.8 608.088 176.02 607.598 176.46C607.118 176.9 606.843 177.51 606.773 178.29H611.963ZM616.54 176.295C616.81 175.825 617.21 175.435 617.74 175.125C618.28 174.805 618.905 174.645 619.615 174.645C620.345 174.645 621.005 174.82 621.595 175.17C622.195 175.52 622.665 176.015 623.005 176.655C623.345 177.285 623.515 178.02 623.515 178.86C623.515 179.69 623.345 180.43 623.005 181.08C622.665 181.73 622.195 182.235 621.595 182.595C621.005 182.955 620.345 183.135 619.615 183.135C618.915 183.135 618.295 182.98 617.755 182.67C617.225 182.35 616.82 181.955 616.54 181.485V186.9H615.175V174.78H616.54V176.295ZM622.12 178.86C622.12 178.24 621.995 177.7 621.745 177.24C621.495 176.78 621.155 176.43 620.725 176.19C620.305 175.95 619.84 175.83 619.33 175.83C618.83 175.83 618.365 175.955 617.935 176.205C617.515 176.445 617.175 176.8 616.915 177.27C616.665 177.73 616.54 178.265 616.54 178.875C616.54 179.495 616.665 180.04 616.915 180.51C617.175 180.97 617.515 181.325 617.935 181.575C618.365 181.815 618.83 181.935 619.33 181.935C619.84 181.935 620.305 181.815 620.725 181.575C621.155 181.325 621.495 180.97 621.745 180.51C621.995 180.04 622.12 179.49 622.12 178.86ZM626.977 175.905V180.75C626.977 181.15 627.062 181.435 627.232 181.605C627.402 181.765 627.697 181.845 628.117 181.845H629.122V183H627.892C627.132 183 626.562 182.825 626.182 182.475C625.802 182.125 625.612 181.55 625.612 180.75V175.905H624.547V174.78H625.612V172.71H626.977V174.78H629.122V175.905H626.977ZM638.276 178.575C638.276 178.835 638.261 179.11 638.231 179.4H631.661C631.711 180.21 631.986 180.845 632.486 181.305C632.996 181.755 633.611 181.98 634.331 181.98C634.921 181.98 635.411 181.845 635.801 181.575C636.201 181.295 636.481 180.925 636.641 180.465H638.111C637.891 181.255 637.451 181.9 636.791 182.4C636.131 182.89 635.311 183.135 634.331 183.135C633.551 183.135 632.851 182.96 632.231 182.61C631.621 182.26 631.141 181.765 630.791 181.125C630.441 180.475 630.266 179.725 630.266 178.875C630.266 178.025 630.436 177.28 630.776 176.64C631.116 176 631.591 175.51 632.201 175.17C632.821 174.82 633.531 174.645 634.331 174.645C635.111 174.645 635.801 174.815 636.401 175.155C637.001 175.495 637.461 175.965 637.781 176.565C638.111 177.155 638.276 177.825 638.276 178.575ZM636.866 178.29C636.866 177.77 636.751 177.325 636.521 176.955C636.291 176.575 635.976 176.29 635.576 176.1C635.186 175.9 634.751 175.8 634.271 175.8C633.581 175.8 632.991 176.02 632.501 176.46C632.021 176.9 631.746 177.51 631.676 178.29H636.866ZM649.962 174.63C650.602 174.63 651.172 174.765 651.672 175.035C652.172 175.295 652.567 175.69 652.857 176.22C653.147 176.75 653.292 177.395 653.292 178.155V183H651.942V178.35C651.942 177.53 651.737 176.905 651.327 176.475C650.927 176.035 650.382 175.815 649.692 175.815C648.982 175.815 648.417 176.045 647.997 176.505C647.577 176.955 647.367 177.61 647.367 178.47V183H646.017V178.35C646.017 177.53 645.812 176.905 645.402 176.475C645.002 176.035 644.457 175.815 643.767 175.815C643.057 175.815 642.492 176.045 642.072 176.505C641.652 176.955 641.442 177.61 641.442 178.47V183H640.077V174.78H641.442V175.965C641.712 175.535 642.072 175.205 642.522 174.975C642.982 174.745 643.487 174.63 644.037 174.63C644.727 174.63 645.337 174.785 645.867 175.095C646.397 175.405 646.792 175.86 647.052 176.46C647.282 175.88 647.662 175.43 648.192 175.11C648.722 174.79 649.312 174.63 649.962 174.63ZM656.897 176.31C657.177 175.82 657.587 175.42 658.127 175.11C658.667 174.8 659.282 174.645 659.972 174.645C660.712 174.645 661.377 174.82 661.967 175.17C662.557 175.52 663.022 176.015 663.362 176.655C663.702 177.285 663.872 178.02 663.872 178.86C663.872 179.69 663.702 180.43 663.362 181.08C663.022 181.73 662.552 182.235 661.952 182.595C661.362 182.955 660.702 183.135 659.972 183.135C659.262 183.135 658.637 182.98 658.097 182.67C657.567 182.36 657.167 181.965 656.897 181.485V183H655.532V171.9H656.897V176.31ZM662.477 178.86C662.477 178.24 662.352 177.7 662.102 177.24C661.852 176.78 661.512 176.43 661.082 176.19C660.662 175.95 660.197 175.83 659.687 175.83C659.187 175.83 658.722 175.955 658.292 176.205C657.872 176.445 657.532 176.8 657.272 177.27C657.022 177.73 656.897 178.265 656.897 178.875C656.897 179.495 657.022 180.04 657.272 180.51C657.532 180.97 657.872 181.325 658.292 181.575C658.722 181.815 659.187 181.935 659.687 181.935C660.197 181.935 660.662 181.815 661.082 181.575C661.512 181.325 661.852 180.97 662.102 180.51C662.352 180.04 662.477 179.49 662.477 178.86ZM673.168 178.575C673.168 178.835 673.153 179.11 673.123 179.4H666.553C666.603 180.21 666.878 180.845 667.378 181.305C667.888 181.755 668.503 181.98 669.223 181.98C669.813 181.98 670.303 181.845 670.693 181.575C671.093 181.295 671.373 180.925 671.533 180.465H673.003C672.783 181.255 672.343 181.9 671.683 182.4C671.023 182.89 670.203 183.135 669.223 183.135C668.443 183.135 667.743 182.96 667.123 182.61C666.513 182.26 666.033 181.765 665.683 181.125C665.333 180.475 665.158 179.725 665.158 178.875C665.158 178.025 665.328 177.28 665.668 176.64C666.008 176 666.483 175.51 667.093 175.17C667.713 174.82 668.423 174.645 669.223 174.645C670.003 174.645 670.693 174.815 671.293 175.155C671.893 175.495 672.353 175.965 672.673 176.565C673.003 177.155 673.168 177.825 673.168 178.575ZM671.758 178.29C671.758 177.77 671.643 177.325 671.413 176.955C671.183 176.575 670.868 176.29 670.468 176.1C670.078 175.9 669.643 175.8 669.163 175.8C668.473 175.8 667.883 176.02 667.393 176.46C666.913 176.9 666.638 177.51 666.568 178.29H671.758ZM676.335 176.115C676.575 175.645 676.915 175.28 677.355 175.02C677.805 174.76 678.35 174.63 678.99 174.63V176.04H678.63C677.1 176.04 676.335 176.87 676.335 178.53V183H674.97V174.78H676.335V176.115ZM684.175 181.905C685.445 180.885 686.44 180.05 687.16 179.4C687.88 178.74 688.485 178.055 688.975 177.345C689.475 176.625 689.725 175.92 689.725 175.23C689.725 174.58 689.565 174.07 689.245 173.7C688.935 173.32 688.43 173.13 687.73 173.13C687.05 173.13 686.52 173.345 686.14 173.775C685.77 174.195 685.57 174.76 685.54 175.47H684.22C684.26 174.35 684.6 173.485 685.24 172.875C685.88 172.265 686.705 171.96 687.715 171.96C688.745 171.96 689.56 172.245 690.16 172.815C690.77 173.385 691.075 174.17 691.075 175.17C691.075 176 690.825 176.81 690.325 177.6C689.835 178.38 689.275 179.07 688.645 179.67C688.015 180.26 687.21 180.95 686.23 181.74H691.39V182.88H684.175V181.905ZM692.968 177.465C692.968 175.745 693.248 174.405 693.808 173.445C694.368 172.475 695.348 171.99 696.748 171.99C698.138 171.99 699.113 172.475 699.673 173.445C700.233 174.405 700.513 175.745 700.513 177.465C700.513 179.215 700.233 180.575 699.673 181.545C699.113 182.515 698.138 183 696.748 183C695.348 183 694.368 182.515 693.808 181.545C693.248 180.575 692.968 179.215 692.968 177.465ZM699.163 177.465C699.163 176.595 699.103 175.86 698.983 175.26C698.873 174.65 698.638 174.16 698.278 173.79C697.928 173.42 697.418 173.235 696.748 173.235C696.068 173.235 695.548 173.42 695.188 173.79C694.838 174.16 694.603 174.65 694.483 175.26C694.373 175.86 694.318 176.595 694.318 177.465C694.318 178.365 694.373 179.12 694.483 179.73C694.603 180.34 694.838 180.83 695.188 181.2C695.548 181.57 696.068 181.755 696.748 181.755C697.418 181.755 697.928 181.57 698.278 181.2C698.638 180.83 698.873 180.34 698.983 179.73C699.103 179.12 699.163 178.365 699.163 177.465ZM702.222 181.905C703.492 180.885 704.487 180.05 705.207 179.4C705.927 178.74 706.532 178.055 707.022 177.345C707.522 176.625 707.772 175.92 707.772 175.23C707.772 174.58 707.612 174.07 707.292 173.7C706.982 173.32 706.477 173.13 705.777 173.13C705.097 173.13 704.567 173.345 704.187 173.775C703.817 174.195 703.617 174.76 703.587 175.47H702.267C702.307 174.35 702.647 173.485 703.287 172.875C703.927 172.265 704.752 171.96 705.762 171.96C706.792 171.96 707.607 172.245 708.207 172.815C708.817 173.385 709.122 174.17 709.122 175.17C709.122 176 708.872 176.81 708.372 177.6C707.882 178.38 707.322 179.07 706.692 179.67C706.062 180.26 705.257 180.95 704.277 181.74H709.437V182.88H702.222V181.905ZM710.655 173.4V172.155H713.475V183H712.095V173.4H710.655ZM725.743 176.925V178.08H719.758V176.925H725.743ZM731.719 173.4V172.155H734.539V183H733.159V173.4H731.719ZM738.639 180.09C738.739 180.66 738.969 181.1 739.329 181.41C739.699 181.72 740.194 181.875 740.814 181.875C741.644 181.875 742.254 181.55 742.644 180.9C743.044 180.25 743.234 179.155 743.214 177.615C743.004 178.065 742.654 178.42 742.164 178.68C741.674 178.93 741.129 179.055 740.529 179.055C739.859 179.055 739.259 178.92 738.729 178.65C738.209 178.37 737.799 177.965 737.499 177.435C737.199 176.905 737.049 176.265 737.049 175.515C737.049 174.445 737.359 173.585 737.979 172.935C738.599 172.275 739.479 171.945 740.619 171.945C742.019 171.945 742.999 172.4 743.559 173.31C744.129 174.22 744.414 175.575 744.414 177.375C744.414 178.635 744.299 179.675 744.069 180.495C743.849 181.315 743.469 181.94 742.929 182.37C742.399 182.8 741.669 183.015 740.739 183.015C739.719 183.015 738.924 182.74 738.354 182.19C737.784 181.64 737.459 180.94 737.379 180.09H738.639ZM740.754 177.9C741.424 177.9 741.974 177.695 742.404 177.285C742.834 176.865 743.049 176.3 743.049 175.59C743.049 174.84 742.839 174.235 742.419 173.775C741.999 173.315 741.409 173.085 740.649 173.085C739.949 173.085 739.389 173.305 738.969 173.745C738.559 174.185 738.354 174.765 738.354 175.485C738.354 176.215 738.559 176.8 738.969 177.24C739.379 177.68 739.974 177.9 740.754 177.9ZM753.871 183.105C753.181 183.105 752.561 182.985 752.011 182.745C751.471 182.495 751.046 182.155 750.736 181.725C750.426 181.285 750.266 180.78 750.256 180.21H751.711C751.761 180.7 751.961 181.115 752.311 181.455C752.671 181.785 753.191 181.95 753.871 181.95C754.521 181.95 755.031 181.79 755.401 181.47C755.781 181.14 755.971 180.72 755.971 180.21C755.971 179.81 755.861 179.485 755.641 179.235C755.421 178.985 755.146 178.795 754.816 178.665C754.486 178.535 754.041 178.395 753.481 178.245C752.791 178.065 752.236 177.885 751.816 177.705C751.406 177.525 751.051 177.245 750.751 176.865C750.461 176.475 750.316 175.955 750.316 175.305C750.316 174.735 750.461 174.23 750.751 173.79C751.041 173.35 751.446 173.01 751.966 172.77C752.496 172.53 753.101 172.41 753.781 172.41C754.761 172.41 755.561 172.655 756.181 173.145C756.811 173.635 757.166 174.285 757.246 175.095H755.746C755.696 174.695 755.486 174.345 755.116 174.045C754.746 173.735 754.256 173.58 753.646 173.58C753.076 173.58 752.611 173.73 752.251 174.03C751.891 174.32 751.711 174.73 751.711 175.26C751.711 175.64 751.816 175.95 752.026 176.19C752.246 176.43 752.511 176.615 752.821 176.745C753.141 176.865 753.586 177.005 754.156 177.165C754.846 177.355 755.401 177.545 755.821 177.735C756.241 177.915 756.601 178.2 756.901 178.59C757.201 178.97 757.351 179.49 757.351 180.15C757.351 180.66 757.216 181.14 756.946 181.59C756.676 182.04 756.276 182.405 755.746 182.685C755.216 182.965 754.591 183.105 753.871 183.105ZM766.86 178.575C766.86 178.835 766.845 179.11 766.815 179.4H760.245C760.295 180.21 760.57 180.845 761.07 181.305C761.58 181.755 762.195 181.98 762.915 181.98C763.505 181.98 763.995 181.845 764.385 181.575C764.785 181.295 765.065 180.925 765.225 180.465H766.695C766.475 181.255 766.035 181.9 765.375 182.4C764.715 182.89 763.895 183.135 762.915 183.135C762.135 183.135 761.435 182.96 760.815 182.61C760.205 182.26 759.725 181.765 759.375 181.125C759.025 180.475 758.85 179.725 758.85 178.875C758.85 178.025 759.02 177.28 759.36 176.64C759.7 176 760.175 175.51 760.785 175.17C761.405 174.82 762.115 174.645 762.915 174.645C763.695 174.645 764.385 174.815 764.985 175.155C765.585 175.495 766.045 175.965 766.365 176.565C766.695 177.155 766.86 177.825 766.86 178.575ZM765.45 178.29C765.45 177.77 765.335 177.325 765.105 176.955C764.875 176.575 764.56 176.29 764.16 176.1C763.77 175.9 763.335 175.8 762.855 175.8C762.165 175.8 761.575 176.02 761.085 176.46C760.605 176.9 760.33 177.51 760.26 178.29H765.45ZM770.026 176.295C770.296 175.825 770.696 175.435 771.226 175.125C771.766 174.805 772.391 174.645 773.101 174.645C773.831 174.645 774.491 174.82 775.081 175.17C775.681 175.52 776.151 176.015 776.491 176.655C776.831 177.285 777.001 178.02 777.001 178.86C777.001 179.69 776.831 180.43 776.491 181.08C776.151 181.73 775.681 182.235 775.081 182.595C774.491 182.955 773.831 183.135 773.101 183.135C772.401 183.135 771.781 182.98 771.241 182.67C770.711 182.35 770.306 181.955 770.026 181.485V186.9H768.661V174.78H770.026V176.295ZM775.606 178.86C775.606 178.24 775.481 177.7 775.231 177.24C774.981 176.78 774.641 176.43 774.211 176.19C773.791 175.95 773.326 175.83 772.816 175.83C772.316 175.83 771.851 175.955 771.421 176.205C771.001 176.445 770.661 176.8 770.401 177.27C770.151 177.73 770.026 178.265 770.026 178.875C770.026 179.495 770.151 180.04 770.401 180.51C770.661 180.97 771.001 181.325 771.421 181.575C771.851 181.815 772.316 181.935 772.816 181.935C773.326 181.935 773.791 181.815 774.211 181.575C774.641 181.325 774.981 180.97 775.231 180.51C775.481 180.04 775.606 179.49 775.606 178.86ZM780.463 175.905V180.75C780.463 181.15 780.548 181.435 780.718 181.605C780.888 181.765 781.183 181.845 781.603 181.845H782.608V183H781.378C780.618 183 780.048 182.825 779.668 182.475C779.288 182.125 779.098 181.55 779.098 180.75V175.905H778.033V174.78H779.098V172.71H780.463V174.78H782.608V175.905H780.463ZM791.762 178.575C791.762 178.835 791.747 179.11 791.717 179.4H785.147C785.197 180.21 785.472 180.845 785.972 181.305C786.482 181.755 787.097 181.98 787.817 181.98C788.407 181.98 788.897 181.845 789.287 181.575C789.687 181.295 789.967 180.925 790.127 180.465H791.597C791.377 181.255 790.937 181.9 790.277 182.4C789.617 182.89 788.797 183.135 787.817 183.135C787.037 183.135 786.337 182.96 785.717 182.61C785.107 182.26 784.627 181.765 784.277 181.125C783.927 180.475 783.752 179.725 783.752 178.875C783.752 178.025 783.922 177.28 784.262 176.64C784.602 176 785.077 175.51 785.687 175.17C786.307 174.82 787.017 174.645 787.817 174.645C788.597 174.645 789.287 174.815 789.887 175.155C790.487 175.495 790.947 175.965 791.267 176.565C791.597 177.155 791.762 177.825 791.762 178.575ZM790.352 178.29C790.352 177.77 790.237 177.325 790.007 176.955C789.777 176.575 789.462 176.29 789.062 176.1C788.672 175.9 788.237 175.8 787.757 175.8C787.067 175.8 786.477 176.02 785.987 176.46C785.507 176.9 785.232 177.51 785.162 178.29H790.352ZM803.449 174.63C804.089 174.63 804.659 174.765 805.159 175.035C805.659 175.295 806.054 175.69 806.344 176.22C806.634 176.75 806.779 177.395 806.779 178.155V183H805.429V178.35C805.429 177.53 805.224 176.905 804.814 176.475C804.414 176.035 803.869 175.815 803.179 175.815C802.469 175.815 801.904 176.045 801.484 176.505C801.064 176.955 800.854 177.61 800.854 178.47V183H799.504V178.35C799.504 177.53 799.299 176.905 798.889 176.475C798.489 176.035 797.944 175.815 797.254 175.815C796.544 175.815 795.979 176.045 795.559 176.505C795.139 176.955 794.929 177.61 794.929 178.47V183H793.564V174.78H794.929V175.965C795.199 175.535 795.559 175.205 796.009 174.975C796.469 174.745 796.974 174.63 797.524 174.63C798.214 174.63 798.824 174.785 799.354 175.095C799.884 175.405 800.279 175.86 800.539 176.46C800.769 175.88 801.149 175.43 801.679 175.11C802.209 174.79 802.799 174.63 803.449 174.63ZM810.383 176.31C810.663 175.82 811.073 175.42 811.613 175.11C812.153 174.8 812.768 174.645 813.458 174.645C814.198 174.645 814.863 174.82 815.453 175.17C816.043 175.52 816.508 176.015 816.848 176.655C817.188 177.285 817.358 178.02 817.358 178.86C817.358 179.69 817.188 180.43 816.848 181.08C816.508 181.73 816.038 182.235 815.438 182.595C814.848 182.955 814.188 183.135 813.458 183.135C812.748 183.135 812.123 182.98 811.583 182.67C811.053 182.36 810.653 181.965 810.383 181.485V183H809.018V171.9H810.383V176.31ZM815.963 178.86C815.963 178.24 815.838 177.7 815.588 177.24C815.338 176.78 814.998 176.43 814.568 176.19C814.148 175.95 813.683 175.83 813.173 175.83C812.673 175.83 812.208 175.955 811.778 176.205C811.358 176.445 811.018 176.8 810.758 177.27C810.508 177.73 810.383 178.265 810.383 178.875C810.383 179.495 810.508 180.04 810.758 180.51C811.018 180.97 811.358 181.325 811.778 181.575C812.208 181.815 812.673 181.935 813.173 181.935C813.683 181.935 814.148 181.815 814.568 181.575C814.998 181.325 815.338 180.97 815.588 180.51C815.838 180.04 815.963 179.49 815.963 178.86ZM826.655 178.575C826.655 178.835 826.64 179.11 826.61 179.4H820.04C820.09 180.21 820.365 180.845 820.865 181.305C821.375 181.755 821.99 181.98 822.71 181.98C823.3 181.98 823.79 181.845 824.18 181.575C824.58 181.295 824.86 180.925 825.02 180.465H826.49C826.27 181.255 825.83 181.9 825.17 182.4C824.51 182.89 823.69 183.135 822.71 183.135C821.93 183.135 821.23 182.96 820.61 182.61C820 182.26 819.52 181.765 819.17 181.125C818.82 180.475 818.645 179.725 818.645 178.875C818.645 178.025 818.815 177.28 819.155 176.64C819.495 176 819.97 175.51 820.58 175.17C821.2 174.82 821.91 174.645 822.71 174.645C823.49 174.645 824.18 174.815 824.78 175.155C825.38 175.495 825.84 175.965 826.16 176.565C826.49 177.155 826.655 177.825 826.655 178.575ZM825.245 178.29C825.245 177.77 825.13 177.325 824.9 176.955C824.67 176.575 824.355 176.29 823.955 176.1C823.565 175.9 823.13 175.8 822.65 175.8C821.96 175.8 821.37 176.02 820.88 176.46C820.4 176.9 820.125 177.51 820.055 178.29H825.245ZM829.821 176.115C830.061 175.645 830.401 175.28 830.841 175.02C831.291 174.76 831.836 174.63 832.476 174.63V176.04H832.116C830.586 176.04 829.821 176.87 829.821 178.53V183H828.456V174.78H829.821V176.115ZM837.661 181.905C838.931 180.885 839.926 180.05 840.646 179.4C841.366 178.74 841.971 178.055 842.461 177.345C842.961 176.625 843.211 175.92 843.211 175.23C843.211 174.58 843.051 174.07 842.731 173.7C842.421 173.32 841.916 173.13 841.216 173.13C840.536 173.13 840.006 173.345 839.626 173.775C839.256 174.195 839.056 174.76 839.026 175.47H837.706C837.746 174.35 838.086 173.485 838.726 172.875C839.366 172.265 840.191 171.96 841.201 171.96C842.231 171.96 843.046 172.245 843.646 172.815C844.256 173.385 844.561 174.17 844.561 175.17C844.561 176 844.311 176.81 843.811 177.6C843.321 178.38 842.761 179.07 842.131 179.67C841.501 180.26 840.696 180.95 839.716 181.74H844.876V182.88H837.661V181.905ZM846.454 177.465C846.454 175.745 846.734 174.405 847.294 173.445C847.854 172.475 848.834 171.99 850.234 171.99C851.624 171.99 852.599 172.475 853.159 173.445C853.719 174.405 853.999 175.745 853.999 177.465C853.999 179.215 853.719 180.575 853.159 181.545C852.599 182.515 851.624 183 850.234 183C848.834 183 847.854 182.515 847.294 181.545C846.734 180.575 846.454 179.215 846.454 177.465ZM852.649 177.465C852.649 176.595 852.589 175.86 852.469 175.26C852.359 174.65 852.124 174.16 851.764 173.79C851.414 173.42 850.904 173.235 850.234 173.235C849.554 173.235 849.034 173.42 848.674 173.79C848.324 174.16 848.089 174.65 847.969 175.26C847.859 175.86 847.804 176.595 847.804 177.465C847.804 178.365 847.859 179.12 847.969 179.73C848.089 180.34 848.324 180.83 848.674 181.2C849.034 181.57 849.554 181.755 850.234 181.755C850.904 181.755 851.414 181.57 851.764 181.2C852.124 180.83 852.359 180.34 852.469 179.73C852.589 179.12 852.649 178.365 852.649 177.465ZM855.708 181.905C856.978 180.885 857.973 180.05 858.693 179.4C859.413 178.74 860.018 178.055 860.508 177.345C861.008 176.625 861.258 175.92 861.258 175.23C861.258 174.58 861.098 174.07 860.778 173.7C860.468 173.32 859.963 173.13 859.263 173.13C858.583 173.13 858.053 173.345 857.673 173.775C857.303 174.195 857.103 174.76 857.073 175.47H855.753C855.793 174.35 856.133 173.485 856.773 172.875C857.413 172.265 858.238 171.96 859.248 171.96C860.278 171.96 861.093 172.245 861.693 172.815C862.303 173.385 862.608 174.17 862.608 175.17C862.608 176 862.358 176.81 861.858 177.6C861.368 178.38 860.808 179.07 860.178 179.67C859.548 180.26 858.743 180.95 857.763 181.74H862.923V182.88H855.708V181.905ZM864.141 173.4V172.155H866.961V183H865.581V173.4H864.141Z" fill="black"/>
</svg>
